# xmcd
#
# Track frame offsets:
#	150
#	8132
#	17712
#	26739
#	41128
#	58958
#	75524
#	94577
#	108209
#	122353
#	138490
#	151654
#	167851
#	178732
#	196085
#	215550
#
# Disc length: 2893 seconds
#
# Revision: 1
# Processed by: cddbd v1.5.2PL0 Copyright (c) Steve Scherf et al.
# Submitted via: audiograbber 1.83.01
#
DISCID=cb0b4b10
DTITLE=Various Artist - CB-E8-12
DYEAR=1900
DGENRE=Karaoke
TTITLE0=Alan Jackson - Standing On The Promises
TTITLE1=Hank Williams - Ready To Go Home
TTITLE2=Loretta Lynn - Old Time Religion
TTITLE3=Elvis Presley - Mansion Over The Hilltop
TTITLE4=Tammy Wynette - How Great Thou Art
TTITLE5=Alan Jackson - Are You Washed In The Blood? - I'll Fly Away Medley
TTITLE6=LeAnn Rimes - Ten Thousand Angels Cried
TTITLE7=Hank Williams - Wealth Won't Save Your Soul
TTITLE8=Loretta Lynn - Old Rugged Cross
TTITLE9=Elvis Presley - Where Could I Go
TTITLE10=Loretta Lynn - When The Roll Is Called Up Yonder
TTITLE11=Charley Pride - Let Me Live In The Light Of His Love
TTITLE12=Gene Watson - City, The
TTITLE13=Judds, The - When King Jesus Calls His Children Home
TTITLE14=Alan Jackson - Leaning On The Everlasting Arms
TTITLE15=Data Track - Data Track
EXTD=
EXTT0=
EXTT1=
EXTT2=
EXTT3=
EXTT4=
EXTT5=
EXTT6=
EXTT7=
EXTT8=
EXTT9=
EXTT10=
EXTT11=
EXTT12=
EXTT13=
EXTT14=
EXTT15=
PLAYORDER=
